<svg width="422" height="96" viewBox="0 0 422 96" fill="none" xmlns="http://www.w3.org/2000/svg">
<path d="M0 65.7778L5.64e-06 30.2223L17.7777 40.0988V55.9999L32 64L46.2221 55.9999V40.0988L64 30.2223V65.7778L32 83.5555L0 65.7778Z" fill="#192657"/>
<path fill-rule="evenodd" clip-rule="evenodd" d="M8.88889 35.1606L5.64e-06 30.2223L32 12.4445L64 30.2223L55.1111 35.1606V61.3333L32 74.6667L8.88887 61.3333L8.88889 35.1606ZM54.1482 35.6956L46.2221 40.0988L46.2221 40L32 32L17.7777 40V40.0988L9.85184 35.6956V60.7864L32 73.5642L54.1482 60.7864V35.6956Z" fill="url(#paint0_linear_13_29)"/>
<path d="M143.792 25.072L132.08 70H118.832L111.664 40.432L104.24 70H90.992L79.6 25.072H91.312L97.776 57.776L105.776 25.072H117.808L125.488 57.776L132.016 25.072H143.792ZM182.944 51.568C182.944 52.592 182.881 53.6587 182.753 54.768H157.985C158.155 56.9867 158.859 58.6933 160.097 59.888C161.377 61.04 162.934 61.616 164.769 61.616C167.499 61.616 169.398 60.464 170.465 58.16H182.113C181.515 60.5067 180.427 62.6187 178.849 64.496C177.313 66.3733 175.371 67.8453 173.025 68.912C170.678 69.9787 168.054 70.512 165.153 70.512C161.654 70.512 158.539 69.7653 155.809 68.272C153.078 66.7787 150.945 64.6453 149.409 61.872C147.873 59.0987 147.105 55.856 147.105 52.144C147.105 48.432 147.851 45.1893 149.345 42.416C150.881 39.6427 153.014 37.5093 155.745 36.016C158.475 34.5227 161.611 33.776 165.153 33.776C168.609 33.776 171.681 34.5013 174.369 35.952C177.057 37.4027 179.147 39.472 180.641 42.16C182.177 44.848 182.944 47.984 182.944 51.568ZM171.745 48.688C171.745 46.8107 171.105 45.3173 169.825 44.208C168.545 43.0987 166.945 42.544 165.025 42.544C163.19 42.544 161.633 43.0773 160.353 44.144C159.115 45.2107 158.347 46.7253 158.049 48.688H171.745ZM199.662 39.344C200.686 37.68 202.158 36.336 204.078 35.312C205.998 34.288 208.195 33.776 210.67 33.776C213.614 33.776 216.281 34.5227 218.67 36.016C221.059 37.5093 222.937 39.6427 224.302 42.416C225.71 45.1893 226.414 48.4107 226.414 52.08C226.414 55.7493 225.71 58.992 224.302 61.808C222.937 64.5813 221.059 66.736 218.67 68.272C216.281 69.7653 213.614 70.512 210.67 70.512C208.153 70.512 205.955 70.0213 204.078 69.04C202.201 68.016 200.729 66.672 199.662 65.008V70H188.718V22.64H199.662V39.344ZM215.278 52.08C215.278 49.3493 214.51 47.216 212.974 45.68C211.481 44.1013 209.625 43.312 207.406 43.312C205.23 43.312 203.374 44.1013 201.838 45.68C200.345 47.2587 199.598 49.4133 199.598 52.144C199.598 54.8747 200.345 57.0293 201.838 58.608C203.374 60.1867 205.23 60.976 207.406 60.976C209.582 60.976 211.438 60.1867 212.974 58.608C214.51 56.9867 215.278 54.8107 215.278 52.08ZM248.412 70.448C245.126 70.448 242.182 69.9147 239.58 68.848C236.977 67.7813 234.886 66.2027 233.308 64.112C231.772 62.0213 230.961 59.504 230.876 56.56H242.524C242.694 58.224 243.27 59.504 244.252 60.4C245.233 61.2533 246.513 61.68 248.092 61.68C249.713 61.68 250.993 61.3173 251.932 60.592C252.87 59.824 253.34 58.7787 253.34 57.456C253.34 56.3467 252.956 55.4293 252.188 54.704C251.462 53.9787 250.545 53.3813 249.436 52.912C248.369 52.4427 246.833 51.9093 244.828 51.312C241.926 50.416 239.558 49.52 237.724 48.624C235.889 47.728 234.31 46.4053 232.988 44.656C231.665 42.9067 231.004 40.624 231.004 37.808C231.004 33.6267 232.518 30.3627 235.548 28.016C238.577 25.6267 242.524 24.432 247.388 24.432C252.337 24.432 256.326 25.6267 259.356 28.016C262.385 30.3627 264.006 33.648 264.22 37.872H252.38C252.294 36.4213 251.761 35.2907 250.78 34.48C249.798 33.6267 248.54 33.2 247.003 33.2C245.681 33.2 244.614 33.5627 243.804 34.288C242.993 34.9707 242.588 35.9733 242.588 37.296C242.588 38.7467 243.27 39.8773 244.635 40.688C246.001 41.4987 248.134 42.3733 251.036 43.312C253.937 44.2933 256.284 45.232 258.076 46.128C259.91 47.024 261.489 48.3253 262.812 50.032C264.134 51.7387 264.796 53.936 264.796 56.624C264.796 59.184 264.134 61.5093 262.812 63.6C261.532 65.6907 259.654 67.3547 257.18 68.592C254.705 69.8293 251.782 70.448 248.412 70.448ZM282.475 39.344C283.541 37.68 285.013 36.336 286.891 35.312C288.768 34.288 290.965 33.776 293.483 33.776C296.427 33.776 299.093 34.5227 301.483 36.016C303.872 37.5093 305.749 39.6427 307.115 42.416C308.523 45.1893 309.227 48.4107 309.227 52.08C309.227 55.7493 308.523 58.992 307.115 61.808C305.749 64.5813 303.872 66.736 301.483 68.272C299.093 69.7653 296.427 70.512 293.483 70.512C291.008 70.512 288.811 70 286.891 68.976C285.013 67.952 283.541 66.6293 282.475 65.008V87.024H271.531V34.288H282.475V39.344ZM298.091 52.08C298.091 49.3493 297.323 47.216 295.787 45.68C294.293 44.1013 292.437 43.312 290.219 43.312C288.043 43.312 286.187 44.1013 284.651 45.68C283.157 47.2587 282.411 49.4133 282.411 52.144C282.411 54.8747 283.157 57.0293 284.651 58.608C286.187 60.1867 288.043 60.976 290.219 60.976C292.395 60.976 294.251 60.1867 295.787 58.608C297.323 56.9867 298.091 54.8107 298.091 52.08ZM312.792 52.08C312.792 48.4107 313.475 45.1893 314.84 42.416C316.248 39.6427 318.147 37.5093 320.536 36.016C322.925 34.5227 325.592 33.776 328.536 33.776C331.053 33.776 333.251 34.288 335.128 35.312C337.048 36.336 338.52 37.68 339.544 39.344V34.288H350.488V70H339.544V64.944C338.477 66.608 336.984 67.952 335.064 68.976C333.187 70 330.989 70.512 328.472 70.512C325.571 70.512 322.925 69.7653 320.536 68.272C318.147 66.736 316.248 64.5813 314.84 61.808C313.475 58.992 312.792 55.7493 312.792 52.08ZM339.544 52.144C339.544 49.4133 338.776 47.2587 337.24 45.68C335.747 44.1013 333.912 43.312 331.736 43.312C329.56 43.312 327.704 44.1013 326.168 45.68C324.675 47.216 323.928 49.3493 323.928 52.08C323.928 54.8107 324.675 56.9867 326.168 58.608C327.704 60.1867 329.56 60.976 331.736 60.976C333.912 60.976 335.747 60.1867 337.24 58.608C338.776 57.0293 339.544 54.8747 339.544 52.144ZM369.35 40.24C370.63 38.2773 372.23 36.7413 374.15 35.632C376.07 34.48 378.203 33.904 380.55 33.904V45.488H377.542C374.811 45.488 372.763 46.0853 371.398 47.28C370.032 48.432 369.35 50.48 369.35 53.424V70H358.406V34.288H369.35V40.24ZM407.605 70L396.725 55.024V70H385.781V22.64H396.725V48.816L407.541 34.288H421.045L406.197 52.208L421.173 70H407.605Z" fill="white"/>
<defs>
<linearGradient id="paint0_linear_13_29" x1="8.88841" y1="26.2716" x2="56.8884" y2="26.2717" gradientUnits="userSpaceOnUse">
<stop stop-color="#FF00FF"/>
<stop offset="0.307292" stop-color="#E80DF9"/>
<stop offset="0.604167" stop-color="#C024ED"/>
<stop offset="1" stop-color="#C024ED"/>
</linearGradient>
</defs>
</svg>
